# xmcd
#
# Track frame offsets:
#	151
#	12116
#	23240
#	36467
#	55252
#	67075
#	78852
#	92056
#	104501
#	118057
#	130299
#	140553
#	153721
#	171754
#	184371
#	196296
#	208385
#	220265
#	229792
#	240962
#	252641
#	268523
#
# Disc length: 3786
#
# Revision: 1
# Processed by: cddbd v1.5.1PL0 Copyright (c) Steve Scherf et al.
# Submitted via: dBpowerAMP V4.0
# Normalized: r0:TSWAP
#
DISCID=4b0ec816
DTITLE=Various Artist - The Greatest Oldies
DYEAR=1900
DGENRE=Oldies
TTITLE0=The Platters - Smoke Gets In Your Eyes
TTITLE1=The Cascades - Rhythm Of The Rain
TTITLE2=Percy Sledge - When A Man Loves A Woman
TTITLE3=Lobo - I'd Love You To Want Me
TTITLE4=Skeeter Davis - The End Of The World
TTITLE5=Ray Peterson - Corinna Corinna
TTITLE6=B J Thomas - Raindrops Keep Falling On My Head
TTITLE7=The Drifters - Under The Broadwalk
TTITLE8=Ben E King - Stand By Me
TTITLE9=Pat Boone - April Love
TTITLE10=Pat Boone - Love Letters In The Sand
TTITLE11=Ray Peterson - Tell Laura I Love Her
TTITLE12=Marmalade - Reflections Of My Life
TTITLE13=Gallery - Nice To Be With You
TTITLE14=The Drifters - Save The Last Dance For Me
TTITLE15=Jerry Butler - Moon River
TTITLE16=The Platters - The Great Pretender
TTITLE17=Searchers - Love Potion No.9
TTITLE18=Johnny Tillotson - Poetry In Motion
TTITLE19=Pat Boone - Speedy Gonzales
TTITLE20=Red Bone - Come And Get Your Love
TTITLE21=Real Thing - You To Me Are Everything
EXTD=
EXTT0=
EXTT1=
EXTT2=
EXTT3=
EXTT4=
EXTT5=
EXTT6=
EXTT7=
EXTT8=
EXTT9=
EXTT10=
EXTT11=
EXTT12=
EXTT13=
EXTT14=
EXTT15=
EXTT16=
EXTT17=
EXTT18=
EXTT19=
EXTT20=
EXTT21=
PLAYORDER=
